<svg width="16" height="16" viewBox="0 0 16 16" fill="none" xmlns="http://www.w3.org/2000/svg">
<g id="mage:map-marker">
<rect x="0.75" y="0.75" width="14.5" height="14.5" rx="4.25" fill="white"/>
<rect x="0.75" y="0.75" width="14.5" height="14.5" rx="4.25" stroke="#D4D4D4" stroke-width="0.5"/>
<path id="Vector" d="M5.35668 6.80853L7.71336 3L10.0706 6.80966L5.35668 6.80853ZM10.8632 12.9994C10.265 12.9994 9.75925 12.7966 9.34614 12.391C8.93303 11.9854 8.72648 11.4885 8.72648 10.9002C8.72648 10.3118 8.93303 9.81487 9.34614 9.40927C9.75925 9.00368 10.265 8.80069 10.8632 8.80031C11.4615 8.79994 11.9672 9.00293 12.3803 9.40927C12.7934 9.81562 13 10.3126 13 10.9002C13 11.4877 12.7934 11.9847 12.3803 12.391C11.9672 12.7974 11.4615 13.0004 10.8632 13M3 12.7186V9.08172H6.69967V12.7186H3ZM10.8632 12.4372C11.3008 12.4372 11.6709 12.2886 11.9737 11.9914C12.2765 11.6943 12.4277 11.3305 12.4273 10.9002C12.4269 10.4698 12.2757 10.106 11.9737 9.80887C11.6717 9.51171 11.3015 9.36312 10.8632 9.36312C10.4249 9.36312 10.0548 9.51171 9.75276 9.80887C9.45076 10.106 9.29956 10.4698 9.29918 10.9002C9.2988 11.3305 9.44999 11.6943 9.75276 11.9914C10.0555 12.2886 10.4257 12.4372 10.8632 12.4372ZM3.5727 12.1558H6.12697V9.64453H3.5727V12.1558ZM6.35433 6.24628H9.07239L7.71336 4.10536L6.35433 6.24628Z" fill="#A6A6A6"/>
</g>
</svg>
