<svg width="18" height="23" viewBox="0 0 18 23" fill="none" xmlns="http://www.w3.org/2000/svg">
<g id="fa-regular:bell" clip-path="url(#clip0_1349_322)">
<path id="Vector" d="M17.6541 16.2747C16.8778 15.3422 15.4254 13.9393 15.4254 9.34375C15.4254 5.85332 13.2365 3.05918 10.2849 2.37367V1.4375C10.2849 0.64373 9.70958 0 9.00003 0C8.29047 0 7.71512 0.64373 7.71512 1.4375V2.37367C4.7636 3.05918 2.57467 5.85332 2.57467 9.34375C2.57467 13.9393 1.12222 15.3422 0.345965 16.2747C0.104894 16.5645 -0.00198115 16.9108 2.7779e-05 17.25C0.00444742 17.9867 0.521545 18.6875 1.28976 18.6875H16.7103C17.4785 18.6875 17.996 17.9867 18 17.25C18.002 16.9108 17.8952 16.564 17.6541 16.2747ZM2.71329 16.5312C3.56588 15.2748 4.49802 13.1922 4.50244 9.3698C4.50244 9.36082 4.50003 9.35273 4.50003 9.34375C4.50003 6.56488 6.51458 4.3125 9.00003 4.3125C11.4855 4.3125 13.5 6.56488 13.5 9.34375C13.5 9.35273 13.4976 9.36082 13.4976 9.3698C13.502 13.1927 14.4342 15.2752 15.2868 16.5312H2.71329ZM9.00003 23C10.4191 23 11.5703 21.713 11.5703 20.125H6.4298C6.4298 21.713 7.58092 23 9.00003 23Z" fill="black"/>
</g>
<defs>
<clipPath id="clip0_1349_322">
<rect width="18" height="23" fill="white"/>
</clipPath>
</defs>
</svg>
