<svg xmlns="http://www.w3.org/2000/svg" width="17" height="16" viewBox="0 0 17 16" fill="none">
    <path d="M15.5 2.885L6.9425 11.45L3.7625 8.27L4.82 7.2125L6.9425 9.335L14.4425 1.835L15.5 2.885ZM8 14C4.6925 14 2 11.3075 2 8C2 4.6925 4.6925 2 8 2C9.1775 2 10.28 2.345 11.21 2.9375L12.2975 1.85C11.0367 0.97116 9.53684 0.499988 8 0.5C3.86 0.5 0.5 3.86 0.5 8C0.5 12.14 3.86 15.5 8 15.5C9.2975 15.5 10.52 15.17 11.585 14.585L10.46 13.46C9.71 13.805 8.8775 14 8 14ZM13.25 10.25H11V11.75H13.25V14H14.75V11.75H17V10.25H14.75V8H13.25V10.25Z" fill="black"/>
</svg>