<svg width="16" height="17" viewBox="0 0 16 17" fill="none" xmlns="http://www.w3.org/2000/svg">
<g clip-path="url(#clip0_4830_14361)">
<path d="M14.1733 9.04535H11.6287V7.77304H14.1733V9.04535ZM14.1733 9.77235H11.6287V11.0447H14.1733V9.77235ZM14.1733 3.77441H11.6287V5.0467H14.1733V3.77441ZM14.1733 5.77373H11.6287V7.04601H14.1733V5.77373ZM14.1733 11.7717H11.6287V13.044H14.1733V11.7717ZM15.9309 14.2799C15.8582 14.658 15.4038 14.667 15.1003 14.6798H9.44769V16.3156H8.31897L0 14.8615V2.14045L8.36806 0.68457H9.44769V2.13316H14.9058C15.213 2.14588 15.5511 2.12407 15.8182 2.30763C16.0054 2.57663 15.9873 2.91835 16 3.22732L15.9927 12.6895C15.9837 13.2184 16.0418 13.7583 15.9309 14.2799ZM6.66497 11.4282C6.16334 10.4104 5.65263 9.39976 5.15278 8.38191C5.64716 7.39135 6.13428 6.39716 6.61956 5.40295C6.20697 5.42295 5.79437 5.44838 5.38363 5.47748C5.07644 6.22448 4.71838 6.95151 4.47847 7.72398C4.25491 6.99513 3.95866 6.29354 3.68784 5.58288C3.28797 5.60469 2.88809 5.62832 2.48825 5.65195C2.90991 6.58257 3.35888 7.50038 3.76781 8.43645C3.28616 9.34523 2.83541 10.2668 2.36828 11.181C2.76631 11.1973 3.16438 11.2137 3.56241 11.2191C3.84597 10.4958 4.19856 9.79963 4.44575 9.0617C4.6675 9.85416 5.04372 10.5866 5.35272 11.3445C5.79075 11.3755 6.22694 11.4027 6.66497 11.4282ZM15.1331 2.99638H9.44769V3.77441H10.9017V5.0467H9.44769V5.77373H10.9017V7.04601H9.44769V7.77304H10.9017V9.04535H9.44769V9.77235H10.9017V11.0447H9.44769V11.7717H10.9017V13.044H9.44769V13.8845H15.1331V2.99638Z" fill="white"/>
</g>
<defs>
<clipPath id="clip0_4830_14361">
<rect width="16" height="16" fill="white" transform="translate(0 0.5)"/>
</clipPath>
</defs>
</svg>
