<svg width="17" height="17" viewBox="0 0 17 17" fill="none" xmlns="http://www.w3.org/2000/svg">
<path d="M9.16536 2.50133C8.85203 2.50044 8.5187 2.5 8.16536 2.5C5.18003 2.5 3.6867 2.5 2.75936 3.42733C1.83203 4.35467 1.83203 5.84733 1.83203 8.83333C1.83203 11.8187 1.83203 13.312 2.75936 14.2393C3.6867 15.1667 5.17936 15.1667 8.16536 15.1667C11.1507 15.1667 12.644 15.1667 13.5714 14.2393C14.4634 13.3467 14.4974 11.9313 14.498 9.16667" stroke="#868686" stroke-width="1.5" stroke-linecap="round" stroke-linejoin="round"/>
<path d="M1.83203 9.92279C2.24536 9.86279 2.66136 9.83346 3.08003 9.83479C4.84803 9.79746 6.5727 10.3481 7.9467 11.3888C9.22003 12.3541 10.1154 13.6821 10.4987 15.1661" stroke="#868686" stroke-width="1.5" stroke-linecap="round" stroke-linejoin="round"/>
<path d="M14.5 11.7637C13.7167 11.367 12.906 11.1657 12.0907 11.1663C10.8567 11.1617 9.63467 11.615 8.5 12.4997M11.8333 3.49967C12.1607 3.16234 13.0333 1.83301 13.5 1.83301M13.5 1.83301C13.9667 1.83301 14.8393 3.16234 15.1667 3.49967M13.5 1.83301V7.16634" stroke="#868686" stroke-width="1.5" stroke-linecap="round" stroke-linejoin="round"/>
</svg>
