<svg width="14" height="15" viewBox="0 0 14 15" fill="none" xmlns="http://www.w3.org/2000/svg">
<rect x="0.25" y="0.895264" width="13.5" height="13.5" rx="3.75" fill="white"/>
<rect x="0.25" y="0.895264" width="13.5" height="13.5" rx="3.75" stroke="#D0D0D0" stroke-width="0.5"/>
<path fill-rule="evenodd" clip-rule="evenodd" d="M7.44599 3.67869C7.9161 3.22328 8.54641 2.97095 9.20091 2.97615C9.85541 2.98135 10.4816 3.24366 10.9444 3.70648C11.4073 4.16929 11.6696 4.79551 11.6748 5.45002C11.68 6.10452 11.4276 6.73482 10.9722 7.20494L10.9687 7.20844L9.64749 8.52969C9.39461 8.78236 9.0904 8.97774 8.75544 9.1026C8.42048 9.22746 8.06259 9.27888 7.70603 9.25338C7.34947 9.22788 7.00254 9.12606 6.68876 8.9548C6.37498 8.78354 6.10166 8.54686 5.88732 8.26077C5.84091 8.19889 5.82098 8.1211 5.83192 8.04452C5.84286 7.96794 5.88377 7.89885 5.94565 7.85244C6.00754 7.80602 6.08532 7.78609 6.1619 7.79703C6.23848 7.80797 6.30757 7.84889 6.35399 7.91077C6.51806 8.13017 6.7274 8.31172 6.96781 8.4431C7.20823 8.57448 7.47409 8.65261 7.74735 8.6722C8.02062 8.69179 8.2949 8.65237 8.5516 8.55662C8.80829 8.46087 9.04138 8.31103 9.23507 8.11727L10.5546 6.79777C10.9002 6.437 11.0908 5.95517 11.0854 5.45557C11.08 4.95597 10.8792 4.47835 10.5258 4.1251C10.1725 3.77184 9.69484 3.57106 9.19524 3.5658C8.69563 3.56054 8.21385 3.7512 7.85315 4.09694L7.09715 4.84827C7.07017 4.87604 7.03792 4.89816 7.0023 4.91334C6.96667 4.92851 6.92838 4.93644 6.88966 4.93667C6.85093 4.93689 6.81256 4.9294 6.77676 4.91463C6.74096 4.89986 6.70846 4.87812 6.68116 4.85066C6.65386 4.8232 6.63229 4.79058 6.61773 4.7547C6.60317 4.71882 6.59589 4.6804 6.59633 4.64168C6.59678 4.60296 6.60492 4.56471 6.6203 4.52917C6.63568 4.49364 6.65798 4.46151 6.6859 4.43469L7.44599 3.67869ZM5.24682 6.18702C5.75187 5.99857 6.30438 5.97885 6.82158 6.13082C7.33878 6.28278 7.79281 6.59824 8.11565 7.02994C8.16207 7.09182 8.18199 7.16961 8.17105 7.24618C8.16011 7.32276 8.1192 7.39186 8.05732 7.43827C7.99544 7.48468 7.91765 7.50461 7.84107 7.49367C7.76449 7.48273 7.6954 7.44182 7.64899 7.37994C7.4848 7.1606 7.27538 6.97912 7.03492 6.84779C6.79446 6.71647 6.52858 6.63837 6.2553 6.61878C5.98202 6.5992 5.70772 6.63859 5.45099 6.73429C5.19426 6.82998 4.9611 6.97975 4.76732 7.17344L3.44899 8.49294C3.10599 8.85415 2.91764 9.33505 2.92409 9.83312C2.93053 10.3312 3.13125 10.8071 3.48347 11.1593C3.8357 11.5115 4.31156 11.7122 4.80963 11.7187C5.30771 11.7251 5.78861 11.5368 6.14982 11.1938L6.90174 10.443C6.95675 10.3899 7.03042 10.3605 7.10689 10.3612C7.18337 10.3618 7.25652 10.3925 7.3106 10.4466C7.36468 10.5007 7.39535 10.5738 7.39602 10.6503C7.39668 10.7268 7.36728 10.8004 7.31415 10.8554L6.55699 11.612C6.08687 12.0674 5.45657 12.3198 4.80207 12.3146C4.14756 12.3094 3.52134 12.047 3.05853 11.5842C2.59571 11.1214 2.3334 10.4952 2.3282 9.84069C2.323 9.18619 2.57533 8.55588 3.03074 8.08577L3.03424 8.08227L4.35549 6.76102C4.60848 6.5083 4.91258 6.31259 5.2474 6.18702" fill="#A6A6A6"/>
</svg>
