<svg width="16" height="16" viewBox="0 0 16 16" fill="none" xmlns="http://www.w3.org/2000/svg">
<g id="mage:map-marker">
<rect x="0.75" y="0.75" width="14.5" height="14.5" rx="4.25" fill="white"/>
<rect x="0.75" y="0.75" width="14.5" height="14.5" rx="4.25" stroke="#D4D4D4" stroke-width="0.5"/>
<g id="Group">
<path id="Vector" d="M8.00104 8.46693C8.51932 8.46693 9.01637 8.26104 9.38285 7.89456C9.74932 7.52809 9.95521 7.03104 9.95521 6.51276C9.95521 5.99448 9.74932 5.49743 9.38285 5.13096C9.01637 4.76448 8.51932 4.55859 8.00104 4.55859C7.48276 4.55859 6.98571 4.76448 6.61924 5.13096C6.25276 5.49743 6.04688 5.99448 6.04688 6.51276C6.04688 7.03104 6.25276 7.52809 6.61924 7.89456C6.98571 8.26104 7.48276 8.46693 8.00104 8.46693Z" stroke="#A6A6A6" stroke-width="0.5" stroke-miterlimit="10" stroke-linecap="round"/>
<path id="Vector_2" d="M7.99957 2.60449C4.09123 2.60449 3.43965 5.86124 4.09123 8.32991C4.66465 10.4929 6.38373 11.9711 7.51773 13.1832C7.5788 13.2503 7.6532 13.3039 7.73617 13.3406C7.81914 13.3773 7.90885 13.3962 7.99957 13.3962C8.09028 13.3962 8.17999 13.3773 8.26296 13.3406C8.34593 13.3039 8.42033 13.2503 8.4814 13.1832C9.61482 11.9711 11.3345 10.4929 11.9079 8.32991C12.5595 5.86124 11.9079 2.60449 7.99957 2.60449Z" stroke="#A6A6A6" stroke-width="0.5" stroke-miterlimit="10" stroke-linecap="round"/>
</g>
</g>
</svg>
