<svg width="17" height="16" viewBox="0 0 17 16" fill="none" xmlns="http://www.w3.org/2000/svg">
<path d="M14 3.25H11.25V2.5C11.25 2.16848 11.1183 1.85054 10.8839 1.61612C10.6495 1.3817 10.3315 1.25 10 1.25H7C6.66848 1.25 6.35054 1.3817 6.11612 1.61612C5.8817 1.85054 5.75 2.16848 5.75 2.5V3.25H3C2.9337 3.25 2.87011 3.27634 2.82322 3.32322C2.77634 3.37011 2.75 3.4337 2.75 3.5C2.75 3.5663 2.77634 3.62989 2.82322 3.67678C2.87011 3.72366 2.9337 3.75 3 3.75H3.75V13C3.75 13.1989 3.82902 13.3897 3.96967 13.5303C4.11032 13.671 4.30109 13.75 4.5 13.75H12.5C12.6989 13.75 12.8897 13.671 13.0303 13.5303C13.171 13.3897 13.25 13.1989 13.25 13V3.75H14C14.0663 3.75 14.1299 3.72366 14.1768 3.67678C14.2237 3.62989 14.25 3.5663 14.25 3.5C14.25 3.4337 14.2237 3.37011 14.1768 3.32322C14.1299 3.27634 14.0663 3.25 14 3.25ZM6.25 2.5C6.25 2.30109 6.32902 2.11032 6.46967 1.96967C6.61032 1.82902 6.80109 1.75 7 1.75H10C10.1989 1.75 10.3897 1.82902 10.5303 1.96967C10.671 2.11032 10.75 2.30109 10.75 2.5V3.25H6.25V2.5ZM12.75 13C12.75 13.0663 12.7237 13.1299 12.6768 13.1768C12.6299 13.2237 12.5663 13.25 12.5 13.25H4.5C4.4337 13.25 4.37011 13.2237 4.32322 13.1768C4.27634 13.1299 4.25 13.0663 4.25 13V3.75H12.75V13ZM7.25 6.5V10.5C7.25 10.5663 7.22366 10.6299 7.17678 10.6768C7.12989 10.7237 7.0663 10.75 7 10.75C6.9337 10.75 6.87011 10.7237 6.82322 10.6768C6.77634 10.6299 6.75 10.5663 6.75 10.5V6.5C6.75 6.4337 6.77634 6.37011 6.82322 6.32322C6.87011 6.27634 6.9337 6.25 7 6.25C7.0663 6.25 7.12989 6.27634 7.17678 6.32322C7.22366 6.37011 7.25 6.4337 7.25 6.5ZM10.25 6.5V10.5C10.25 10.5663 10.2237 10.6299 10.1768 10.6768C10.1299 10.7237 10.0663 10.75 10 10.75C9.9337 10.75 9.87011 10.7237 9.82322 10.6768C9.77634 10.6299 9.75 10.5663 9.75 10.5V6.5C9.75 6.4337 9.77634 6.37011 9.82322 6.32322C9.87011 6.27634 9.9337 6.25 10 6.25C10.0663 6.25 10.1299 6.27634 10.1768 6.32322C10.2237 6.37011 10.25 6.4337 10.25 6.5Z" fill="#969696"/>
</svg>
