<svg width="16" height="16" viewBox="0 0 16 16" fill="none" xmlns="http://www.w3.org/2000/svg">
<g id="material-symbols-light:category-outline">
<path id="Vector" d="M5.25505 6.81993L7.99839 2.30859L10.7424 6.82126L5.25505 6.81993ZM11.6651 14.1533C10.9686 14.1533 10.3799 13.913 9.89905 13.4326C9.41816 12.9522 9.17772 12.3635 9.17772 11.6666C9.17772 10.9697 9.41816 10.381 9.89905 9.90059C10.3799 9.42015 10.9686 9.1797 11.6651 9.17926C12.3615 9.17882 12.9502 9.41926 13.4311 9.90059C13.9119 10.3819 14.1524 10.9706 14.1524 11.6666C14.1524 12.3626 13.9119 12.9513 13.4311 13.4326C12.9502 13.9139 12.3615 14.1544 11.6651 14.1539M2.51172 13.8206V9.51259H6.81839V13.8206H2.51172ZM11.6651 13.4873C12.1744 13.4873 12.6053 13.3113 12.9577 12.9593C13.3102 12.6073 13.4862 12.1764 13.4857 11.6666C13.4853 11.1568 13.3093 10.7259 12.9577 10.3739C12.6062 10.0219 12.1753 9.84593 11.6651 9.84593C11.1548 9.84593 10.7239 10.0219 10.3724 10.3739C10.0208 10.7259 9.84483 11.1568 9.84439 11.6666C9.84394 12.1764 10.0199 12.6073 10.3724 12.9593C10.7248 13.3113 11.1557 13.4873 11.6651 13.4873ZM3.17839 13.1539H6.15172V10.1793H3.17839V13.1539ZM6.41639 6.15393H9.58039L7.99839 3.61793L6.41639 6.15393Z" fill="#5A5A5A"/>
</g>
</svg>
