<svg width="24" height="24" viewBox="0 0 24 24" fill="none" xmlns="http://www.w3.org/2000/svg">
<g id="bitcoin-icons:home-outline">
<path id="Vector" d="M12.387 4.25188C12.2911 4.15734 12.1762 4.08288 12.0493 4.03308C11.9225 3.98329 11.7864 3.95924 11.6495 3.96241C11.5126 3.96559 11.3779 3.99592 11.2536 4.05154C11.1293 4.10716 11.0182 4.18687 10.927 4.28574L4.74842 10.9799C4.58478 11.1572 4.49431 11.3865 4.49426 11.6242L4.4925 18.9946C4.49244 19.2512 4.59774 19.4973 4.78523 19.6788C4.97273 19.8602 5.22706 19.9621 5.49227 19.9621H8.49227C8.75749 19.9621 9.01187 19.8602 9.19945 19.6788C9.38703 19.4973 9.49244 19.2512 9.4925 18.9946L9.49331 15.6084C9.49337 15.3518 9.59879 15.1057 9.78637 14.9243C9.97395 14.7428 10.2283 14.6409 10.4935 14.6409H13.4935C13.7588 14.6409 14.0131 14.7428 14.2006 14.9243C14.3881 15.1057 14.4934 15.3518 14.4933 15.6084L14.4925 18.9946C14.4924 19.2512 14.5977 19.4973 14.7852 19.6788C14.9727 19.8602 15.2271 19.9621 15.4923 19.9621H18.4923C18.7575 19.9621 19.0119 19.8602 19.1994 19.6788C19.387 19.4973 19.4924 19.2512 19.4925 18.9946L19.4943 11.6503C19.494 11.3969 19.391 11.1538 19.2074 10.9731L12.387 4.25188Z" stroke="black"/>
</g>
</svg>
