<svg width="14" height="15" viewBox="0 0 14 15" fill="none" xmlns="http://www.w3.org/2000/svg">
<path d="M7.00104 8.06849C7.51932 8.06849 8.01637 7.8626 8.38285 7.49613C8.74932 7.12965 8.95521 6.6326 8.95521 6.11432C8.95521 5.59605 8.74932 5.099 8.38285 4.73252C8.01637 4.36604 7.51932 4.16016 7.00104 4.16016C6.48276 4.16016 5.98571 4.36604 5.61924 4.73252C5.25276 5.099 5.04688 5.59605 5.04688 6.11432C5.04688 6.6326 5.25276 7.12965 5.61924 7.49613C5.98571 7.8626 6.48276 8.06849 7.00104 8.06849Z" stroke="#A6A6A6" stroke-width="0.5" stroke-miterlimit="10" stroke-linecap="round"/>
<path d="M6.99957 2.20605C3.09123 2.20605 2.43965 5.4628 3.09123 7.93147C3.66465 10.0945 5.38373 11.5726 6.51773 12.7848C6.5788 12.8519 6.6532 12.9055 6.73617 12.9421C6.81914 12.9788 6.90885 12.9978 6.99957 12.9978C7.09028 12.9978 7.17999 12.9788 7.26296 12.9421C7.34593 12.9055 7.42033 12.8519 7.4814 12.7848C8.61482 11.5726 10.3345 10.0945 10.9079 7.93147C11.5595 5.4628 10.9079 2.20605 6.99957 2.20605Z" stroke="#A6A6A6" stroke-width="0.5" stroke-miterlimit="10" stroke-linecap="round"/>
</svg>
