<svg width="26" height="26" viewBox="0 0 26 26" fill="none" xmlns="http://www.w3.org/2000/svg">
    <g clip-path="url(#clip0_2797_212)">
        <path fill-rule="evenodd" clip-rule="evenodd" d="M6.5 8.66699C6.5 6.94308 7.18482 5.28978 8.40381 4.0708C9.62279 2.85181 11.2761 2.16699 13 2.16699C14.7239 2.16699 16.3772 2.85181 17.5962 4.0708C18.8152 5.28978 19.5 6.94308 19.5 8.66699H20.5833C21.158 8.66699 21.7091 8.89527 22.1154 9.30159C22.5217 9.70792 22.75 10.259 22.75 10.8337V21.667C22.75 22.2416 22.5217 22.7927 22.1154 23.1991C21.7091 23.6054 21.158 23.8337 20.5833 23.8337H5.41667C4.84203 23.8337 4.29093 23.6054 3.8846 23.1991C3.47827 22.7927 3.25 22.2416 3.25 21.667V10.8337C3.25 10.259 3.47827 9.70792 3.8846 9.30159C4.29093 8.89527 4.84203 8.66699 5.41667 8.66699H6.5ZM13 4.33366C14.1493 4.33366 15.2515 4.7902 16.0641 5.60286C16.8768 6.41552 17.3333 7.51772 17.3333 8.66699H8.66667C8.66667 7.51772 9.12321 6.41552 9.93587 5.60286C10.7485 4.7902 11.8507 4.33366 13 4.33366ZM15.1667 15.167C15.1667 15.5473 15.0665 15.9209 14.8764 16.2503C14.6862 16.5797 14.4127 16.8532 14.0833 17.0433V18.417C14.0833 18.7043 13.9692 18.9799 13.766 19.183C13.5629 19.3862 13.2873 19.5003 13 19.5003C12.7127 19.5003 12.4371 19.3862 12.234 19.183C12.0308 18.9799 11.9167 18.7043 11.9167 18.417V17.0433C11.5036 16.8048 11.1808 16.4367 10.9983 15.9961C10.8158 15.5554 10.7838 15.0669 10.9073 14.6062C11.0307 14.1455 11.3027 13.7384 11.6811 13.4481C12.0595 13.1577 12.5231 13.0003 13 13.0003C13.5746 13.0003 14.1257 13.2286 14.5321 13.6349C14.9384 14.0413 15.1667 14.5924 15.1667 15.167Z" fill="#9D9D9D"/>
    </g>
    <defs>
        <clipPath id="clip0_2797_212">
            <rect width="26" height="26" fill="white"/>
        </clipPath>
    </defs>
</svg>
