<svg width="24" height="24" viewBox="0 0 24 24" fill="none" xmlns="http://www.w3.org/2000/svg">
    <path d="M12 9.83333C12.4979 9.83333 12.991 9.73526 13.451 9.54471C13.911 9.35416 14.329 9.07487 14.6811 8.72278C15.0332 8.37069 15.3125 7.9527 15.503 7.49267C15.6936 7.03265 15.7917 6.5396 15.7917 6.04167C15.7917 5.54374 15.6936 5.05068 15.503 4.59066C15.3125 4.13063 15.0332 3.71264 14.6811 3.36055C14.329 3.00846 13.911 2.72917 13.451 2.53862C12.991 2.34807 12.4979 2.25 12 2.25C10.9944 2.25 10.03 2.64948 9.31889 3.36055C8.60781 4.07163 8.20833 5.03605 8.20833 6.04167C8.20833 7.04728 8.60781 8.0117 9.31889 8.72278C10.03 9.43386 10.9944 9.83333 12 9.83333ZM2.25 21.1V21.75H21.75V21.1C21.75 18.6733 21.75 17.46 21.2777 16.5327C20.8622 15.7173 20.1993 15.0544 19.384 14.639C18.4567 14.1667 17.2433 14.1667 14.8167 14.1667H9.18333C6.75667 14.1667 5.54333 14.1667 4.616 14.639C3.80067 15.0544 3.13778 15.7173 2.72233 16.5327C2.25 17.46 2.25 18.6733 2.25 21.1Z" fill="#9D9D9D" stroke="#9D9D9D" stroke-width="4" stroke-linecap="round" stroke-linejoin="round"/>
</svg>